{"title":"Sanctum.2011.R5.LiNE.x264.Feel-Free","uid":6197725,"size":1066862984,"categoryP":"video","categoryS":"movies","magnet":"?xt=urn:btih:36debd58685a318b50bf085d19eb4f0de067522b&amp;dn=Sanctum.2011.R5.LiNE.x264.Feel-Free&amp;tr=udp%3A%2F%2Ftracker.openbittorrent.com%3A80&amp;tr=udp%3A%2F%2Fopen.demonii.com%3A1337&amp;tr=udp%3A%2F%2Ftracker.coppersurfer.tk%3A6969&amp;tr=udp%3A%2F%2Fexodus.desync.com%3A6969","seeders":0,"leechers":0,"uploader":".BONE.","files":10,"time":1298497578,"description":"\nGenre:Action | Adventure | Drama\nLanguage:English\n &lt;a href=&quot;\nhttp://www.imdb.com/title/tt0881320/&quot; rel=&quot;nofollow&quot; target=&quot;_NEW&quot;&gt;\nhttp://www.imdb.com/title/tt0881320/&lt;/a&gt;\n\nSource:ELEKTRI4KA/T0XiC-iNK Thx.\n\n\nFormat : MPEG-4\nFormat profile : Base Media\nCodec ID : isom\nFile size : 1 016 MiB\nDuration : 1h 44mn\nOverall bit rate : 1 361 Kbps\nMovie name : Sanctum.2011.R5.LiNE.x264.Feel-Free\n\n\nVideo\nFormat settings, CABAC : Yes\nFormat settings, ReFrames : 4 frames\nFormat settings, GOP : M=4, N=16\nCodec ID : avc1\nCodec ID/Info : Advanced Video Coding\nDuration : 1h 44mn\nBit rate mode : Variable\nBit rate : 968 Kbps\nWidth : 720 pixels\nHeight : 384 pixels\nDisplay aspect ratio : 1.875\nFrame rate mode : Constant\nFrame rate : 25.000 fps\nColor space : YUV\nChroma subsampling : 4:2:0\nBit depth : 8 bits\nScan type : Progressive\nBits/(Pixel*Frame) : 0.140\nStream size : 725 MiB (71%)\nWriting library : x264\n\nAudio\nID : 2\nFormat : AAC\nFormat/Info : Advanced Audio Codec\nFormat version : Version 4\nFormat profile : LC\nCodec ID : 40\nDuration : 1h 44mn\nBit rate mode : Variable\nBit rate : 384 Kbps\nChannel(s) : 6 channels\nChannel positions : Front: L C R, Side: L R, LFE\nSampling rate : 48.0 KHz\nStream size : 287 MiB (28%)\n\n\n\n\n\nPlot:\nAn underwater cave diving team experiences a life-threatening crisis during an expedition to the unexplored and least accessible cave system in the world.\n &lt;a href=&quot;\nhttp://www.postimg.com/29000/28827.jpg&quot; rel=&quot;nofollow&quot; target=&quot;_NEW&quot;&gt;\nhttp://www.postimg.com/29000/28827.jpg&lt;/a&gt;\n &lt;a href=&quot;\nhttp://www.postimg.com/29000/28828.jpg&quot; rel=&quot;nofollow&quot; target=&quot;_NEW&quot;&gt;\nhttp://www.postimg.com/29000/28828.jpg&lt;/a&gt;\n &lt;a href=&quot;\nhttp://www.postimg.com/29000/28829.jpg&quot; rel=&quot;nofollow&quot; target=&quot;_NEW&quot;&gt;\nhttp://www.postimg.com/29000/28829.jpg&lt;/a&gt;\n &lt;a href=&quot;\nhttp://www.postimg.com/29000/28832.jpg&quot; rel=&quot;nofollow&quot; target=&quot;_NEW&quot;&gt;\nhttp://www.postimg.com/29000/28832.jpg&lt;/a&gt;\n &lt;a href=&quot;\nhttp://www.postimg.com/29000/28830.jpg&quot; rel=&quot;nofollow&quot; target=&quot;_NEW&quot;&gt;\nhttp://www.postimg.com/29000/28830.jpg&lt;/a&gt;\n &lt;a href=&quot;\nhttp://www.postimg.com/29000/28831.jpg&quot; rel=&quot;nofollow&quot; target=&quot;_NEW&quot;&gt;\nhttp://www.postimg.com/29000/28831.jpg&lt;/a&gt;","torrent":{"xt":"urn:btih:36debd58685a318b50bf085d19eb4f0de067522b","amp;dn":"Sanctum.2011.R5.LiNE.x264.Feel-Free","amp;tr":["udp%3A%2F%2Ftracker.openbittorrent.com%3A80","udp%3A%2F%2Fopen.demonii.com%3A1337","udp%3A%2F%2Ftracker.coppersurfer.tk%3A6969","udp%3A%2F%2Fexodus.desync.com%3A6969"],"infoHash":"36debd58685a318b50bf085d19eb4f0de067522b","infoHashBuffer":{"type":"Buffer","data":[54,222,189,88,104,90,49,139,80,191,8,93,25,235,79,13,224,103,82,43]},"announce":[],"urlList":[]}}